<mxfile host="app.diagrams.net" agent="Mozilla/5.0 (Windows NT 10.0; Win64; x64) AppleWebKit/537.36 (KHTML, like Gecko) Chrome/127.0.0.0 Safari/537.36" version="24.7.6" pages="2">
  <diagram name="Page-1" id="uqu4MA3W103sAPNdU19W">
    <mxGraphModel dx="2074" dy="1196" grid="1" gridSize="10" guides="1" tooltips="1" connect="1" arrows="1" fold="1" page="1" pageScale="1" pageWidth="850" pageHeight="1100" math="0" shadow="0">
      <root>
        <mxCell id="0" />
        <mxCell id="1" parent="0" />
        <mxCell id="srKOxvxDXywhAGwptkbs-34" value="" style="endArrow=none;dashed=1;html=1;rounded=0;fontFamily=Helvetica;fontSize=12;fontColor=default;" parent="1" edge="1">
          <mxGeometry width="50" height="50" relative="1" as="geometry">
            <mxPoint x="250" y="590" as="sourcePoint" />
            <mxPoint x="630" y="590" as="targetPoint" />
          </mxGeometry>
        </mxCell>
        <mxCell id="srKOxvxDXywhAGwptkbs-9" style="edgeStyle=orthogonalEdgeStyle;rounded=0;orthogonalLoop=1;jettySize=auto;html=1;fontFamily=Helvetica;fontSize=12;fontColor=default;" parent="1" target="srKOxvxDXywhAGwptkbs-3" edge="1">
          <mxGeometry relative="1" as="geometry">
            <mxPoint x="480" y="350" as="sourcePoint" />
            <Array as="points">
              <mxPoint x="480" y="370" />
              <mxPoint x="480" y="370" />
            </Array>
          </mxGeometry>
        </mxCell>
        <mxCell id="srKOxvxDXywhAGwptkbs-2" value="应用程序" style="whiteSpace=wrap;html=1;" parent="1" vertex="1">
          <mxGeometry x="320" y="310" width="240" height="40" as="geometry" />
        </mxCell>
        <mxCell id="srKOxvxDXywhAGwptkbs-11" style="edgeStyle=orthogonalEdgeStyle;rounded=0;orthogonalLoop=1;jettySize=auto;html=1;fontFamily=Helvetica;fontSize=12;fontColor=default;" parent="1" source="srKOxvxDXywhAGwptkbs-3" target="srKOxvxDXywhAGwptkbs-7" edge="1">
          <mxGeometry relative="1" as="geometry" />
        </mxCell>
        <mxCell id="srKOxvxDXywhAGwptkbs-3" value="数据库" style="whiteSpace=wrap;html=1;" parent="1" vertex="1">
          <mxGeometry x="425" y="400" width="110" height="40" as="geometry" />
        </mxCell>
        <mxCell id="srKOxvxDXywhAGwptkbs-7" value="系统库" style="whiteSpace=wrap;html=1;" parent="1" vertex="1">
          <mxGeometry x="425" y="480" width="110" height="40" as="geometry" />
        </mxCell>
        <mxCell id="srKOxvxDXywhAGwptkbs-8" value="系统调用" style="whiteSpace=wrap;html=1;" parent="1" vertex="1">
          <mxGeometry x="340" y="570" width="180" height="40" as="geometry" />
        </mxCell>
        <mxCell id="srKOxvxDXywhAGwptkbs-14" value="" style="whiteSpace=wrap;html=1;strokeColor=default;align=center;verticalAlign=middle;fontFamily=Helvetica;fontSize=12;fontColor=default;fillColor=none;dashed=1;" parent="1" vertex="1">
          <mxGeometry x="310" y="290" width="260" height="160" as="geometry" />
        </mxCell>
        <mxCell id="srKOxvxDXywhAGwptkbs-19" value="" style="edgeStyle=none;orthogonalLoop=1;jettySize=auto;html=1;rounded=0;fontFamily=Helvetica;fontSize=12;fontColor=default;entryX=0.334;entryY=0.004;entryDx=0;entryDy=0;entryPerimeter=0;" parent="1" target="srKOxvxDXywhAGwptkbs-8" edge="1">
          <mxGeometry width="80" relative="1" as="geometry">
            <mxPoint x="400" y="450" as="sourcePoint" />
            <mxPoint x="440" y="470" as="targetPoint" />
            <Array as="points" />
          </mxGeometry>
        </mxCell>
        <mxCell id="srKOxvxDXywhAGwptkbs-39" style="edgeStyle=orthogonalEdgeStyle;rounded=0;orthogonalLoop=1;jettySize=auto;html=1;entryX=0.5;entryY=0;entryDx=0;entryDy=0;fontFamily=Helvetica;fontSize=12;fontColor=default;" parent="1" source="srKOxvxDXywhAGwptkbs-22" target="srKOxvxDXywhAGwptkbs-29" edge="1">
          <mxGeometry relative="1" as="geometry" />
        </mxCell>
        <mxCell id="srKOxvxDXywhAGwptkbs-22" value="" style="whiteSpace=wrap;html=1;strokeColor=default;align=center;verticalAlign=middle;fontFamily=Helvetica;fontSize=12;fontColor=default;fillColor=default;" parent="1" vertex="1">
          <mxGeometry x="280" y="640" width="320" height="160" as="geometry" />
        </mxCell>
        <mxCell id="srKOxvxDXywhAGwptkbs-23" value="内核" style="text;strokeColor=none;align=center;fillColor=none;html=1;verticalAlign=middle;whiteSpace=wrap;rounded=0;fontSize=12;fontFamily=Helvetica;fontColor=default;" parent="1" vertex="1">
          <mxGeometry x="410" y="650" width="60" height="30" as="geometry" />
        </mxCell>
        <mxCell id="srKOxvxDXywhAGwptkbs-24" value="线程调度器" style="whiteSpace=wrap;html=1;strokeColor=default;align=center;verticalAlign=middle;fontFamily=Helvetica;fontSize=12;fontColor=default;fillColor=default;" parent="1" vertex="1">
          <mxGeometry x="285" y="695" width="70" height="50" as="geometry" />
        </mxCell>
        <mxCell id="srKOxvxDXywhAGwptkbs-25" value="文件系统" style="whiteSpace=wrap;html=1;strokeColor=default;align=center;verticalAlign=middle;fontFamily=Helvetica;fontSize=12;fontColor=default;fillColor=default;" parent="1" vertex="1">
          <mxGeometry x="365" y="695" width="70" height="50" as="geometry" />
        </mxCell>
        <mxCell id="srKOxvxDXywhAGwptkbs-26" value="网络栈" style="whiteSpace=wrap;html=1;strokeColor=default;align=center;verticalAlign=middle;fontFamily=Helvetica;fontSize=12;fontColor=default;fillColor=default;" parent="1" vertex="1">
          <mxGeometry x="445" y="695" width="70" height="50" as="geometry" />
        </mxCell>
        <mxCell id="srKOxvxDXywhAGwptkbs-27" value="虚拟内存" style="whiteSpace=wrap;html=1;strokeColor=default;align=center;verticalAlign=middle;fontFamily=Helvetica;fontSize=12;fontColor=default;fillColor=default;" parent="1" vertex="1">
          <mxGeometry x="525" y="695" width="70" height="50" as="geometry" />
        </mxCell>
        <mxCell id="srKOxvxDXywhAGwptkbs-28" value="设备驱动" style="whiteSpace=wrap;html=1;strokeColor=default;align=center;verticalAlign=middle;fontFamily=Helvetica;fontSize=12;fontColor=default;fillColor=default;" parent="1" vertex="1">
          <mxGeometry x="405" y="760" width="70" height="30" as="geometry" />
        </mxCell>
        <mxCell id="srKOxvxDXywhAGwptkbs-29" value="设备" style="whiteSpace=wrap;html=1;strokeColor=default;align=center;verticalAlign=middle;fontFamily=Helvetica;fontSize=12;fontColor=default;fillColor=default;" parent="1" vertex="1">
          <mxGeometry x="320" y="820" width="240" height="30" as="geometry" />
        </mxCell>
        <mxCell id="srKOxvxDXywhAGwptkbs-30" style="edgeStyle=orthogonalEdgeStyle;rounded=0;orthogonalLoop=1;jettySize=auto;html=1;entryX=0.775;entryY=-0.068;entryDx=0;entryDy=0;entryPerimeter=0;fontFamily=Helvetica;fontSize=12;fontColor=default;" parent="1" source="srKOxvxDXywhAGwptkbs-7" target="srKOxvxDXywhAGwptkbs-8" edge="1">
          <mxGeometry relative="1" as="geometry" />
        </mxCell>
        <mxCell id="srKOxvxDXywhAGwptkbs-31" value="" style="edgeStyle=none;orthogonalLoop=1;jettySize=auto;html=1;rounded=0;fontFamily=Helvetica;fontSize=12;fontColor=default;exitX=0.914;exitY=1.019;exitDx=0;exitDy=0;exitPerimeter=0;entryX=0.363;entryY=-0.017;entryDx=0;entryDy=0;entryPerimeter=0;" parent="1" source="srKOxvxDXywhAGwptkbs-14" target="srKOxvxDXywhAGwptkbs-27" edge="1">
          <mxGeometry width="80" relative="1" as="geometry">
            <mxPoint x="560" y="480" as="sourcePoint" />
            <mxPoint x="640" y="480" as="targetPoint" />
            <Array as="points" />
          </mxGeometry>
        </mxCell>
        <mxCell id="srKOxvxDXywhAGwptkbs-35" value="用户空间" style="text;strokeColor=none;align=center;fillColor=none;html=1;verticalAlign=middle;whiteSpace=wrap;rounded=0;fontSize=12;fontFamily=Helvetica;fontColor=default;" parent="1" vertex="1">
          <mxGeometry x="560" y="560" width="60" height="30" as="geometry" />
        </mxCell>
        <mxCell id="srKOxvxDXywhAGwptkbs-37" value="内核空间" style="text;strokeColor=none;align=center;fillColor=none;html=1;verticalAlign=middle;whiteSpace=wrap;rounded=0;fontSize=12;fontFamily=Helvetica;fontColor=default;" parent="1" vertex="1">
          <mxGeometry x="560" y="590" width="60" height="30" as="geometry" />
        </mxCell>
        <mxCell id="srKOxvxDXywhAGwptkbs-38" style="edgeStyle=orthogonalEdgeStyle;rounded=0;orthogonalLoop=1;jettySize=auto;html=1;entryX=0.469;entryY=0;entryDx=0;entryDy=0;entryPerimeter=0;fontFamily=Helvetica;fontSize=12;fontColor=default;" parent="1" source="srKOxvxDXywhAGwptkbs-8" target="srKOxvxDXywhAGwptkbs-22" edge="1">
          <mxGeometry relative="1" as="geometry" />
        </mxCell>
      </root>
    </mxGraphModel>
  </diagram>
  <diagram id="TjsXnp3fXacF0DOC6Yf5" name="虚拟地址空间">
    <mxGraphModel dx="2074" dy="1098" grid="1" gridSize="10" guides="1" tooltips="1" connect="1" arrows="1" fold="1" page="1" pageScale="1" pageWidth="850" pageHeight="1100" math="0" shadow="0">
      <root>
        <mxCell id="0" />
        <mxCell id="1" parent="0" />
        <mxCell id="YSrPAstB_OERPcartm6A-22" value="" style="group" vertex="1" connectable="0" parent="1">
          <mxGeometry x="320" y="140" width="240" height="740" as="geometry" />
        </mxCell>
        <mxCell id="YSrPAstB_OERPcartm6A-2" value="&lt;font data-font-src=&quot;https://fonts.googleapis.com/css?family=Noto+Sans+Simplified+Chinese&quot; face=&quot;Noto Sans Simplified Chinese&quot; style=&quot;font-size: 16px;&quot;&gt;&lt;b style=&quot;&quot;&gt;与进程相关的数据结构&lt;/b&gt;&lt;/font&gt;&lt;div style=&quot;font-size: 16px;&quot;&gt;&lt;font face=&quot;Ax8rC_hTtlp69Eoer5o2&quot; style=&quot;font-size: 16px;&quot;&gt;&lt;b style=&quot;&quot;&gt;（例如，页表、task 和 mm 结构，内核栈）&lt;/b&gt;&lt;/font&gt;&lt;/div&gt;" style="rounded=0;whiteSpace=wrap;html=1;strokeWidth=2;spacingRight=10;spacingLeft=10;" vertex="1" parent="YSrPAstB_OERPcartm6A-22">
          <mxGeometry width="240" height="110" as="geometry" />
        </mxCell>
        <mxCell id="YSrPAstB_OERPcartm6A-3" value="&lt;font style=&quot;font-size: 16px;&quot;&gt;&lt;b&gt;物理内存&lt;/b&gt;&lt;/font&gt;" style="rounded=0;whiteSpace=wrap;html=1;strokeWidth=2;" vertex="1" parent="YSrPAstB_OERPcartm6A-22">
          <mxGeometry y="110" width="240" height="50" as="geometry" />
        </mxCell>
        <mxCell id="YSrPAstB_OERPcartm6A-4" value="&lt;font style=&quot;font-size: 16px;&quot;&gt;&lt;b&gt;内核代码和数据&lt;/b&gt;&lt;/font&gt;" style="rounded=0;whiteSpace=wrap;html=1;strokeWidth=2;fontFamily=Noto Sans Simplified Chinese;fontSource=https%3A%2F%2Ffonts.googleapis.com%2Fcss%3Ffamily%3DNoto%2BSans%2BSimplified%2BChinese;" vertex="1" parent="YSrPAstB_OERPcartm6A-22">
          <mxGeometry y="160" width="240" height="50" as="geometry" />
        </mxCell>
        <mxCell id="YSrPAstB_OERPcartm6A-5" value="" style="rounded=0;whiteSpace=wrap;html=1;strokeWidth=2;fillColor=#B3B3B3;" vertex="1" parent="YSrPAstB_OERPcartm6A-22">
          <mxGeometry y="210" width="240" height="160" as="geometry" />
        </mxCell>
        <mxCell id="YSrPAstB_OERPcartm6A-6" value="&lt;font style=&quot;font-size: 16px;&quot;&gt;&lt;b&gt;共享库的内存映射区域&lt;/b&gt;&lt;/font&gt;" style="rounded=0;whiteSpace=wrap;html=1;strokeWidth=2;" vertex="1" parent="YSrPAstB_OERPcartm6A-22">
          <mxGeometry y="370" width="240" height="50" as="geometry" />
        </mxCell>
        <mxCell id="YSrPAstB_OERPcartm6A-7" value="&lt;font style=&quot;font-size: 16px;&quot;&gt;&lt;b&gt;未初始化的数据（.bss）&lt;/b&gt;&lt;/font&gt;" style="rounded=0;whiteSpace=wrap;html=1;strokeWidth=2;" vertex="1" parent="YSrPAstB_OERPcartm6A-22">
          <mxGeometry y="580" width="240" height="40" as="geometry" />
        </mxCell>
        <mxCell id="YSrPAstB_OERPcartm6A-10" value="&lt;font style=&quot;font-size: 16px;&quot;&gt;&lt;b&gt;已初始化的数据（.data）&lt;/b&gt;&lt;/font&gt;" style="rounded=0;whiteSpace=wrap;html=1;strokeWidth=2;" vertex="1" parent="YSrPAstB_OERPcartm6A-22">
          <mxGeometry y="620" width="240" height="40" as="geometry" />
        </mxCell>
        <mxCell id="YSrPAstB_OERPcartm6A-11" value="&lt;font style=&quot;font-size: 16px;&quot;&gt;&lt;b&gt;代码（.text）&lt;/b&gt;&lt;/font&gt;" style="rounded=0;whiteSpace=wrap;html=1;strokeWidth=2;" vertex="1" parent="YSrPAstB_OERPcartm6A-22">
          <mxGeometry y="660" width="240" height="40" as="geometry" />
        </mxCell>
        <mxCell id="YSrPAstB_OERPcartm6A-12" value="" style="rounded=0;whiteSpace=wrap;html=1;strokeWidth=2;" vertex="1" parent="YSrPAstB_OERPcartm6A-22">
          <mxGeometry y="700" width="240" height="40" as="geometry" />
        </mxCell>
        <mxCell id="YSrPAstB_OERPcartm6A-13" value="&lt;b&gt;&lt;font style=&quot;font-size: 16px;&quot;&gt;用户栈&lt;/font&gt;&lt;/b&gt;" style="rounded=0;whiteSpace=wrap;html=1;strokeWidth=2;strokeColor=default;" vertex="1" parent="YSrPAstB_OERPcartm6A-22">
          <mxGeometry y="210" width="240" height="30" as="geometry" />
        </mxCell>
        <mxCell id="YSrPAstB_OERPcartm6A-14" value="" style="endArrow=classic;html=1;rounded=0;strokeWidth=2;" edge="1" parent="YSrPAstB_OERPcartm6A-22">
          <mxGeometry width="50" height="50" relative="1" as="geometry">
            <mxPoint x="119.6836363636364" y="240" as="sourcePoint" />
            <mxPoint x="119.6836363636364" y="280" as="targetPoint" />
          </mxGeometry>
        </mxCell>
        <mxCell id="YSrPAstB_OERPcartm6A-15" value="" style="rounded=0;whiteSpace=wrap;html=1;strokeWidth=2;fillColor=#B3B3B3;" vertex="1" parent="YSrPAstB_OERPcartm6A-22">
          <mxGeometry y="420" width="240" height="160" as="geometry" />
        </mxCell>
        <mxCell id="YSrPAstB_OERPcartm6A-16" value="" style="endArrow=classic;html=1;rounded=0;strokeWidth=2;" edge="1" parent="YSrPAstB_OERPcartm6A-22">
          <mxGeometry width="50" height="50" relative="1" as="geometry">
            <mxPoint x="119.54181818181821" y="370" as="sourcePoint" />
            <mxPoint x="119.54181818181821" y="330" as="targetPoint" />
          </mxGeometry>
        </mxCell>
        <mxCell id="YSrPAstB_OERPcartm6A-17" value="&lt;b&gt;&lt;font style=&quot;font-size: 16px;&quot;&gt;向下生长&lt;/font&gt;&lt;/b&gt;" style="text;html=1;align=center;verticalAlign=middle;resizable=0;points=[];autosize=1;strokeColor=none;fillColor=none;" vertex="1" parent="YSrPAstB_OERPcartm6A-22">
          <mxGeometry x="120" y="240" width="90" height="30" as="geometry" />
        </mxCell>
        <mxCell id="YSrPAstB_OERPcartm6A-18" value="" style="endArrow=classic;html=1;rounded=0;strokeWidth=2;" edge="1" parent="YSrPAstB_OERPcartm6A-22">
          <mxGeometry width="50" height="50" relative="1" as="geometry">
            <mxPoint x="119.09454545454554" y="540" as="sourcePoint" />
            <mxPoint x="119.09454545454554" y="500" as="targetPoint" />
          </mxGeometry>
        </mxCell>
        <mxCell id="YSrPAstB_OERPcartm6A-20" value="&lt;b&gt;&lt;font style=&quot;font-size: 16px;&quot;&gt;运行时堆（通过malloc分配）&lt;/font&gt;&lt;/b&gt;" style="rounded=0;whiteSpace=wrap;html=1;strokeWidth=2;" vertex="1" parent="YSrPAstB_OERPcartm6A-22">
          <mxGeometry y="540" width="240" height="40" as="geometry" />
        </mxCell>
        <mxCell id="YSrPAstB_OERPcartm6A-24" value="" style="shape=curlyBracket;whiteSpace=wrap;html=1;rounded=1;flipH=1;labelPosition=right;verticalLabelPosition=middle;align=left;verticalAlign=middle;strokeWidth=2;" vertex="1" parent="1">
          <mxGeometry x="570" y="140" width="20" height="200" as="geometry" />
        </mxCell>
        <mxCell id="YSrPAstB_OERPcartm6A-25" value="" style="shape=curlyBracket;whiteSpace=wrap;html=1;rounded=1;flipH=1;labelPosition=right;verticalLabelPosition=middle;align=left;verticalAlign=middle;strokeWidth=2;" vertex="1" parent="1">
          <mxGeometry x="570" y="350" width="20" height="530" as="geometry" />
        </mxCell>
        <mxCell id="YSrPAstB_OERPcartm6A-26" value="&lt;font style=&quot;font-size: 16px;&quot;&gt;&lt;b&gt;内核虚拟内存&lt;/b&gt;&lt;/font&gt;" style="text;html=1;align=center;verticalAlign=middle;resizable=0;points=[];autosize=1;strokeColor=none;fillColor=none;" vertex="1" parent="1">
          <mxGeometry x="590" y="238" width="120" height="30" as="geometry" />
        </mxCell>
        <mxCell id="YSrPAstB_OERPcartm6A-27" value="&lt;font style=&quot;font-size: 16px;&quot;&gt;&lt;b&gt;进程虚拟内存&lt;/b&gt;&lt;/font&gt;" style="text;html=1;align=center;verticalAlign=middle;resizable=0;points=[];autosize=1;strokeColor=none;fillColor=none;" vertex="1" parent="1">
          <mxGeometry x="590" y="620" width="120" height="30" as="geometry" />
        </mxCell>
        <mxCell id="YSrPAstB_OERPcartm6A-32" value="" style="shape=curlyBracket;whiteSpace=wrap;html=1;rounded=1;flipH=0;labelPosition=right;verticalLabelPosition=middle;align=left;verticalAlign=middle;strokeWidth=2;" vertex="1" parent="1">
          <mxGeometry x="290" y="140" width="20" height="110" as="geometry" />
        </mxCell>
        <mxCell id="YSrPAstB_OERPcartm6A-33" value="" style="shape=curlyBracket;whiteSpace=wrap;html=1;rounded=1;flipH=0;labelPosition=right;verticalLabelPosition=middle;align=left;verticalAlign=middle;strokeWidth=2;" vertex="1" parent="1">
          <mxGeometry x="290" y="260" width="20" height="90" as="geometry" />
        </mxCell>
        <mxCell id="YSrPAstB_OERPcartm6A-34" value="&lt;b&gt;&lt;font style=&quot;font-size: 16px;&quot;&gt;对每个进程都不相同&lt;/font&gt;&lt;/b&gt;" style="text;html=1;align=center;verticalAlign=middle;resizable=0;points=[];autosize=1;strokeColor=none;fillColor=none;fontFamily=Helvetica;fontSize=12;fontColor=default;" vertex="1" parent="1">
          <mxGeometry x="130" y="180" width="170" height="30" as="geometry" />
        </mxCell>
        <mxCell id="YSrPAstB_OERPcartm6A-35" value="&lt;b&gt;&lt;font style=&quot;font-size: 16px;&quot;&gt;对每个进程都一样&lt;/font&gt;&lt;/b&gt;" style="text;html=1;align=center;verticalAlign=middle;resizable=0;points=[];autosize=1;strokeColor=none;fillColor=none;fontFamily=Helvetica;fontSize=12;fontColor=default;" vertex="1" parent="1">
          <mxGeometry x="150" y="290" width="150" height="30" as="geometry" />
        </mxCell>
        <mxCell id="YSrPAstB_OERPcartm6A-36" value="" style="endArrow=classic;html=1;rounded=0;fontFamily=Helvetica;fontSize=12;fontColor=default;autosize=1;resizable=0;strokeWidth=2;" edge="1" parent="1">
          <mxGeometry width="50" height="50" relative="1" as="geometry">
            <mxPoint x="285" y="380" as="sourcePoint" />
            <mxPoint x="315" y="380" as="targetPoint" />
          </mxGeometry>
        </mxCell>
        <mxCell id="YSrPAstB_OERPcartm6A-37" value="&lt;b&gt;&lt;font style=&quot;font-size: 16px;&quot;&gt;%rsp&lt;/font&gt;&lt;/b&gt;" style="text;html=1;align=center;verticalAlign=middle;resizable=0;points=[];autosize=1;strokeColor=none;fillColor=none;fontFamily=Helvetica;fontSize=12;fontColor=default;" vertex="1" parent="1">
          <mxGeometry x="231" y="363" width="60" height="30" as="geometry" />
        </mxCell>
        <mxCell id="YSrPAstB_OERPcartm6A-39" value="" style="endArrow=classic;html=1;rounded=0;fontFamily=Helvetica;fontSize=12;fontColor=default;autosize=1;resizable=0;strokeWidth=2;" edge="1" parent="1">
          <mxGeometry width="50" height="50" relative="1" as="geometry">
            <mxPoint x="285" y="680" as="sourcePoint" />
            <mxPoint x="315" y="680" as="targetPoint" />
          </mxGeometry>
        </mxCell>
        <mxCell id="YSrPAstB_OERPcartm6A-40" value="&lt;b&gt;&lt;font style=&quot;font-size: 16px;&quot;&gt;brk&lt;/font&gt;&lt;/b&gt;" style="text;html=1;align=center;verticalAlign=middle;resizable=0;points=[];autosize=1;strokeColor=none;fillColor=none;fontFamily=Helvetica;fontSize=12;fontColor=default;" vertex="1" parent="1">
          <mxGeometry x="241" y="664" width="50" height="30" as="geometry" />
        </mxCell>
        <mxCell id="YSrPAstB_OERPcartm6A-42" value="" style="endArrow=classic;html=1;rounded=0;fontFamily=Helvetica;fontSize=12;fontColor=default;autosize=1;resizable=0;strokeWidth=2;" edge="1" parent="1">
          <mxGeometry width="50" height="50" relative="1" as="geometry">
            <mxPoint x="285" y="840" as="sourcePoint" />
            <mxPoint x="315" y="840" as="targetPoint" />
          </mxGeometry>
        </mxCell>
        <mxCell id="YSrPAstB_OERPcartm6A-43" value="&lt;b&gt;&lt;font style=&quot;font-size: 16px;&quot;&gt;0x40000000&lt;/font&gt;&lt;/b&gt;" style="text;html=1;align=center;verticalAlign=middle;resizable=0;points=[];autosize=1;strokeColor=none;fillColor=none;fontFamily=Helvetica;fontSize=12;fontColor=default;" vertex="1" parent="1">
          <mxGeometry x="181" y="825" width="110" height="30" as="geometry" />
        </mxCell>
        <mxCell id="YSrPAstB_OERPcartm6A-44" value="&lt;b&gt;&lt;font style=&quot;font-size: 16px;&quot;&gt;0&lt;/font&gt;&lt;/b&gt;" style="text;html=1;align=center;verticalAlign=middle;resizable=0;points=[];autosize=1;strokeColor=none;fillColor=none;fontFamily=Helvetica;fontSize=12;fontColor=default;" vertex="1" parent="1">
          <mxGeometry x="294" y="865" width="30" height="30" as="geometry" />
        </mxCell>
        <mxCell id="YSrPAstB_OERPcartm6A-45" value="&lt;b&gt;&lt;font style=&quot;font-size: 17px;&quot;&gt;一个 Linux 进程的虚拟内存&lt;/font&gt;&lt;/b&gt;" style="text;html=1;align=center;verticalAlign=middle;resizable=0;points=[];autosize=1;strokeColor=none;fillColor=none;fontFamily=Helvetica;fontSize=12;fontColor=default;" vertex="1" parent="1">
          <mxGeometry x="325" y="908" width="230" height="30" as="geometry" />
        </mxCell>
      </root>
    </mxGraphModel>
  </diagram>
</mxfile>
